<svg width="184" height="108" viewBox="0 0 184 108" fill="none" xmlns="http://www.w3.org/2000/svg">
<path d="M13.0396 49.1958C13.0396 24.3373 21.2914 16.2918 33.0502 16.2918C44.8089 16.2918 49.8632 18.5611 58.9401 16.6013V40.6346C52.7513 37.3339 46.8719 35.9929 43.2617 35.9929C39.6516 35.9929 38.1044 37.6433 38.1044 40.944C38.1044 44.2447 40.0642 45.5856 43.2617 45.5856C46.4593 45.5856 52.7513 44.9668 58.9401 43.6258V78.3865C49.8632 76.4267 42.1271 78.6959 33.0502 78.6959C23.9732 78.6959 13.0396 67.6592 13.0396 49.0927V49.1958Z" fill="#F05323"/>
<path d="M84.1081 36.3531C84.1081 34.3933 82.4577 33.7744 79.3633 33.7744C76.2689 33.7744 69.4612 36.1468 63.8912 42.6451L63.4786 17.1677C70.1832 21.0873 81.8388 16.2394 91.9473 16.2394C102.056 16.2394 106.594 20.159 106.594 31.0926C106.594 51.1032 85.5521 43.5734 85.5521 50.1749C85.5521 56.7763 87.5119 53.3724 90.1938 53.3724C94.7323 53.3724 101.643 50.6906 106.697 46.2553L105.975 76.89H62.5503V57.8078C62.5503 35.4248 83.9018 43.1608 83.9018 36.4563L84.1081 36.3531Z" fill="#F05323"/>
<path d="M111.958 18.2547H125.058C132.587 18.2547 139.395 26.9191 140.014 40.5345C140.22 44.6604 140.633 50.7461 143.211 50.7461C147.75 50.7461 142.283 27.9505 140.942 18.2547H162.294C160.334 34.8614 160.334 54.4594 162.294 76.8424H137.435C136.919 63.0206 137.642 46.5171 134.135 46.5171C130.628 46.5171 131.453 63.5364 133.825 76.8424H110.204C113.092 60.2356 113.505 34.6551 111.752 18.2547H111.958Z" fill="#F05323"/>
<path d="M25.261 97.3372C24.8508 97.4935 24.4211 97.618 23.9719 97.7108C23.5276 97.8036 23.0686 97.8499 22.595 97.8499C21.9504 97.8499 21.3254 97.7523 20.72 97.557C20.1145 97.3617 19.5725 97.0736 19.094 96.6927C18.6155 96.307 18.2346 95.8309 17.9514 95.2645C17.6682 94.6981 17.5266 94.0438 17.5266 93.3016C17.5266 92.2664 17.7659 91.3607 18.2444 90.5843C18.7278 89.8031 19.3967 89.1976 20.2512 88.7679C21.1106 88.3333 22.1018 88.1161 23.2249 88.1161C23.425 88.1161 23.7131 88.138 24.0891 88.182C24.4651 88.2259 24.8069 88.3089 25.1145 88.431V91.2508C25.0413 91.1873 24.9558 91.1434 24.8582 91.119C24.7654 91.0946 24.6702 91.0824 24.5725 91.0824C24.3235 91.0824 24.0623 91.158 23.7888 91.3094C23.5203 91.4559 23.2712 91.6585 23.0417 91.9173C22.8123 92.1761 22.6243 92.4691 22.4778 92.7962C22.3362 93.1234 22.2654 93.4627 22.2654 93.8143C22.2654 94.1024 22.3093 94.3172 22.3972 94.4588C22.4851 94.6004 22.595 94.6932 22.7268 94.7371C22.8635 94.7811 22.9954 94.8031 23.1223 94.8031C23.2249 94.8031 23.3567 94.786 23.5178 94.7518C23.6838 94.7127 23.9036 94.62 24.177 94.4735C24.4553 94.3221 24.8167 94.0828 25.261 93.7557V97.3372ZM26.7112 93.4408C26.7112 92.64 26.8455 91.9149 27.114 91.2655C27.3875 90.6161 27.7585 90.057 28.2273 89.5882C28.696 89.1195 29.2283 88.7606 29.824 88.5116C30.4197 88.2577 31.0422 88.1307 31.6917 88.1307C32.2141 88.1307 32.7244 88.2601 33.2224 88.5189C33.7253 88.7728 34.1257 89.1317 34.4236 89.5955L35.4709 88.4749H37.8733V97.5789H35.4709L34.4236 96.0628C34.0476 96.6195 33.5422 97.0565 32.9075 97.3739C32.2727 97.6912 31.6184 97.8499 30.9446 97.8499C30.2024 97.8499 29.509 97.6912 28.8645 97.3739C28.22 97.0516 27.7 96.5658 27.3044 95.9163C26.9089 95.262 26.7112 94.4369 26.7112 93.4408ZM31.0764 93.7996C31.0764 94.0389 31.1326 94.266 31.2449 94.4808C31.3572 94.6956 31.5403 94.8031 31.7942 94.8031C32.0383 94.8031 32.3508 94.7298 32.7317 94.5833C33.1125 94.432 33.5105 94.1805 33.9255 93.8289V91.2362C33.7546 91.1336 33.5618 91.0824 33.3469 91.0824C33.0686 91.0824 32.7952 91.1678 32.5266 91.3387C32.2581 91.5047 32.0139 91.7244 31.7942 91.9979C31.5793 92.2664 31.406 92.5594 31.2742 92.8768C31.1423 93.1942 31.0764 93.5018 31.0764 93.7996ZM45.8494 93.1844C45.8494 92.3885 45.7322 91.8172 45.4978 91.4705C45.2683 91.1239 44.9558 90.9505 44.5603 90.9505C44.3406 90.9505 44.1868 91.0433 44.0989 91.2288C44.0159 91.4144 43.9744 91.6366 43.9744 91.8953V97.5789H39.6238V88.4749H42.0261L43.0735 89.8958C43.4788 89.3441 44.0256 88.9119 44.7141 88.5994C45.4026 88.2869 46.1155 88.1307 46.8528 88.1307C47.468 88.1307 48.032 88.2601 48.5447 88.5189C49.0574 88.7728 49.4651 89.1414 49.7678 89.6248C50.0754 90.1082 50.2292 90.6893 50.2292 91.368V97.5789H45.8494V93.1844ZM54.7629 88.4749L56.1179 91.1556C56.3181 90.7064 56.5232 90.2596 56.7332 89.8153C56.948 89.3661 57.158 88.9193 57.363 88.4749H60.8567L56.3669 97.5643C56.323 97.6571 56.2473 97.7279 56.1399 97.7767C56.0325 97.8255 55.9153 97.8499 55.7883 97.8499C55.6711 97.8499 55.5564 97.8255 55.4441 97.7767C55.3318 97.7279 55.2512 97.6571 55.2024 97.5643L50.4783 88.4749H54.7629ZM60.6956 93.4408C60.6956 92.64 60.8298 91.9149 61.0984 91.2655C61.3718 90.6161 61.7429 90.057 62.2117 89.5882C62.6804 89.1195 63.2126 88.7606 63.8083 88.5116C64.4041 88.2577 65.0266 88.1307 65.676 88.1307C66.1985 88.1307 66.7087 88.2601 67.2068 88.5189C67.7097 88.7728 68.1101 89.1317 68.408 89.5955L69.4553 88.4749H71.8577V97.5789H69.4553L68.408 96.0628C68.032 96.6195 67.5266 97.0565 66.8918 97.3739C66.2571 97.6912 65.6028 97.8499 64.929 97.8499C64.1868 97.8499 63.4934 97.6912 62.8489 97.3739C62.2043 97.0516 61.6843 96.5658 61.2888 95.9163C60.8933 95.262 60.6956 94.4369 60.6956 93.4408ZM65.0608 93.7996C65.0608 94.0389 65.1169 94.266 65.2292 94.4808C65.3416 94.6956 65.5247 94.8031 65.7786 94.8031C66.0227 94.8031 66.3352 94.7298 66.7161 94.5833C67.0969 94.432 67.4949 94.1805 67.9099 93.8289V91.2362C67.739 91.1336 67.5461 91.0824 67.3313 91.0824C67.053 91.0824 66.7795 91.1678 66.511 91.3387C66.2424 91.5047 65.9983 91.7244 65.7786 91.9979C65.5637 92.2664 65.3904 92.5594 65.2585 92.8768C65.1267 93.1942 65.0608 93.5018 65.0608 93.7996ZM73.4543 94.4735C73.5471 94.4784 73.7229 94.5272 73.9817 94.62C74.2405 94.7127 74.531 94.8055 74.8533 94.8983C75.1755 94.9862 75.4758 95.0301 75.7542 95.0301C75.8958 95.0301 76.0105 95.0057 76.0984 94.9569C76.1863 94.9032 76.2302 94.8079 76.2302 94.6712C76.2302 94.4906 76.135 94.3392 75.9446 94.2171C75.759 94.0951 75.5271 93.9681 75.2488 93.8363C74.9705 93.6995 74.6897 93.5262 74.4065 93.3162C74.1282 93.1063 73.8938 92.8255 73.7034 92.474C73.5178 92.1175 73.425 91.6585 73.425 91.097C73.425 90.5501 73.5398 90.0887 73.7693 89.7127C74.0037 89.3319 74.3162 89.0267 74.7068 88.7972C75.1023 88.5628 75.5442 88.3944 76.0325 88.2918C76.5256 88.1844 77.031 88.1307 77.5486 88.1307C77.9929 88.1307 78.4128 88.1527 78.8083 88.1966C79.2039 88.2406 79.5383 88.2894 79.8118 88.3431C80.0901 88.3919 80.2659 88.4261 80.3391 88.4456V91.2069C80.3391 91.2069 80.2512 91.1873 80.0754 91.1483C79.9045 91.1092 79.6897 91.0653 79.4309 91.0164C79.1721 90.9676 78.9109 90.9237 78.6472 90.8846C78.3835 90.8455 78.1589 90.826 77.9734 90.826C77.8318 90.826 77.7219 90.8577 77.6438 90.9212C77.5706 90.9847 77.5339 91.0579 77.5339 91.141C77.5339 91.2191 77.5754 91.2948 77.6584 91.368C77.7415 91.4412 77.9099 91.5291 78.1638 91.6317C78.5496 91.7879 78.9084 91.9466 79.2405 92.1077C79.5725 92.264 79.863 92.452 80.1121 92.6717C80.366 92.8914 80.5613 93.1722 80.698 93.514C80.8396 93.8558 80.9104 94.2904 80.9104 94.8177C80.9104 95.8236 80.554 96.5804 79.8411 97.0882C79.1282 97.596 78.1809 97.8499 76.9993 97.8499C76.0618 97.8499 75.3367 97.7938 74.824 97.6815C74.3113 97.5741 73.9548 97.4666 73.7546 97.3592C73.5544 97.2469 73.4543 97.1908 73.4543 97.1908V94.4735ZM85.759 88.4749H86.594V86.014L90.9739 85.5672V88.4749H93.0466V90.7967H90.9739V93.0965C90.9739 93.7606 91.1228 94.2537 91.4207 94.576C91.7185 94.8983 92.2605 95.0594 93.0466 95.0594V96.9198C92.6267 97.203 92.1482 97.43 91.6111 97.6009C91.074 97.7767 90.5271 97.8646 89.9705 97.8646C89.3552 97.8646 88.7913 97.7352 88.2786 97.4764C87.7708 97.2176 87.363 96.8441 87.0554 96.3558C86.7478 95.8675 86.594 95.284 86.594 94.6053V90.7967H85.759V88.4749ZM99.2063 97.8499C98.552 97.8499 97.9148 97.7376 97.2947 97.513C96.6746 97.2835 96.1155 96.9564 95.6174 96.5316C95.1243 96.1019 94.7312 95.5892 94.4382 94.9935C94.1501 94.3929 94.0061 93.724 94.0061 92.9867C94.0061 92.2591 94.1428 91.5975 94.4163 91.0018C94.6897 90.4061 95.0657 89.8958 95.5442 89.471C96.0227 89.0413 96.5745 88.7118 97.1995 88.4823C97.8293 88.2479 98.4983 88.1307 99.2063 88.1307C100.202 88.1307 101.103 88.3285 101.909 88.724C102.715 89.1146 103.352 89.6761 103.821 90.4085C104.294 91.1361 104.531 92.0052 104.531 93.016C104.531 93.7581 104.387 94.4271 104.099 95.0228C103.811 95.6185 103.418 96.1263 102.92 96.5462C102.422 96.9661 101.853 97.2884 101.213 97.513C100.578 97.7376 99.9094 97.8499 99.2063 97.8499ZM98.7449 94.891C98.9597 94.891 99.199 94.7909 99.4626 94.5907C99.7263 94.3856 99.9802 94.1268 100.224 93.8143C100.469 93.4969 100.669 93.1649 100.825 92.8182C100.986 92.4715 101.067 92.1541 101.067 91.8661C101.067 91.6463 101.008 91.4461 100.891 91.2655C100.779 91.0848 100.583 90.9945 100.305 90.9945C100.051 90.9945 99.7825 91.0921 99.4993 91.2874C99.2161 91.4779 98.95 91.7293 98.7009 92.0418C98.4568 92.3494 98.2566 92.679 98.1003 93.0306C97.949 93.3773 97.8733 93.7093 97.8733 94.0267C97.8733 94.2415 97.9368 94.4393 98.0637 94.62C98.1907 94.8006 98.4177 94.891 98.7449 94.891ZM115.957 93.1844C115.957 92.3885 115.84 91.8172 115.605 91.4705C115.376 91.1239 115.063 90.9505 114.668 90.9505C114.448 90.9505 114.294 91.0433 114.206 91.2288C114.123 91.4144 114.082 91.6366 114.082 91.8953V97.5789H109.731V88.4749H112.134L113.181 89.8958C113.586 89.3441 114.133 88.9119 114.822 88.5994C115.51 88.2869 116.223 88.1307 116.96 88.1307C117.575 88.1307 118.139 88.2601 118.652 88.5189C119.165 88.7728 119.573 89.1414 119.875 89.6248C120.183 90.1082 120.337 90.6893 120.337 91.368V97.5789H115.957V93.1844ZM126.906 97.8499C126.252 97.8499 125.615 97.7376 124.995 97.513C124.375 97.2835 123.816 96.9564 123.318 96.5316C122.824 96.1019 122.431 95.5892 122.138 94.9935C121.85 94.3929 121.706 93.724 121.706 92.9867C121.706 92.2591 121.843 91.5975 122.116 91.0018C122.39 90.4061 122.766 89.8958 123.244 89.471C123.723 89.0413 124.275 88.7118 124.9 88.4823C125.53 88.2479 126.198 88.1307 126.906 88.1307C127.903 88.1307 128.803 88.3285 129.609 88.724C130.415 89.1146 131.052 89.6761 131.521 90.4085C131.994 91.1361 132.231 92.0052 132.231 93.016C132.231 93.7581 132.087 94.4271 131.799 95.0228C131.511 95.6185 131.118 96.1263 130.62 96.5462C130.122 96.9661 129.553 97.2884 128.913 97.513C128.279 97.7376 127.61 97.8499 126.906 97.8499ZM126.445 94.891C126.66 94.891 126.899 94.7909 127.163 94.5907C127.427 94.3856 127.68 94.1268 127.925 93.8143C128.169 93.4969 128.369 93.1649 128.525 92.8182C128.686 92.4715 128.767 92.1541 128.767 91.8661C128.767 91.6463 128.708 91.4461 128.591 91.2655C128.479 91.0848 128.283 90.9945 128.005 90.9945C127.751 90.9945 127.483 91.0921 127.199 91.2874C126.916 91.4779 126.65 91.7293 126.401 92.0418C126.157 92.3494 125.957 92.679 125.801 93.0306C125.649 93.3773 125.573 93.7093 125.573 94.0267C125.573 94.2415 125.637 94.4393 125.764 94.62C125.891 94.8006 126.118 94.891 126.445 94.891ZM133 88.4749H133.835V86.014L138.215 85.5672V88.4749H140.288V90.7967H138.215V93.0965C138.215 93.7606 138.364 94.2537 138.662 94.576C138.96 94.8983 139.502 95.0594 140.288 95.0594V96.9198C139.868 97.203 139.389 97.43 138.852 97.6009C138.315 97.7767 137.768 97.8646 137.212 97.8646C136.596 97.8646 136.032 97.7352 135.52 97.4764C135.012 97.2176 134.604 96.8441 134.297 96.3558C133.989 95.8675 133.835 95.284 133.835 94.6053V90.7967H133V88.4749ZM143.972 84.2562C144.665 84.2562 145.176 84.4124 145.503 84.7249C145.835 85.0374 146.001 85.3963 146.001 85.8016C146.001 86.1043 145.906 86.4046 145.715 86.7025C145.53 86.9954 145.256 87.2396 144.895 87.4349C144.533 87.6253 144.092 87.7205 143.569 87.7205C142.817 87.7205 142.287 87.5692 141.98 87.2664C141.677 86.9588 141.526 86.6121 141.526 86.2264C141.526 85.9139 141.616 85.6087 141.797 85.3109C141.977 85.0081 142.248 84.7567 142.61 84.5565C142.976 84.3563 143.43 84.2562 143.972 84.2562ZM145.876 97.5789H141.635V88.4749H145.876V97.5789ZM152.512 97.8499C151.858 97.8499 151.22 97.7376 150.6 97.513C149.98 97.2835 149.421 96.9564 148.923 96.5316C148.43 96.1019 148.037 95.5892 147.744 94.9935C147.456 94.3929 147.312 93.724 147.312 92.9867C147.312 92.2591 147.448 91.5975 147.722 91.0018C147.995 90.4061 148.371 89.8958 148.85 89.471C149.328 89.0413 149.88 88.7118 150.505 88.4823C151.135 88.2479 151.804 88.1307 152.512 88.1307C153.508 88.1307 154.409 88.3285 155.215 88.724C156.02 89.1146 156.657 89.6761 157.126 90.4085C157.6 91.1361 157.837 92.0052 157.837 93.016C157.837 93.7581 157.693 94.4271 157.405 95.0228C157.116 95.6185 156.723 96.1263 156.225 96.5462C155.727 96.9661 155.158 97.2884 154.519 97.513C153.884 97.7376 153.215 97.8499 152.512 97.8499ZM152.051 94.891C152.265 94.891 152.505 94.7909 152.768 94.5907C153.032 94.3856 153.286 94.1268 153.53 93.8143C153.774 93.4969 153.974 93.1649 154.131 92.8182C154.292 92.4715 154.372 92.1541 154.372 91.8661C154.372 91.6463 154.314 91.4461 154.197 91.2655C154.084 91.0848 153.889 90.9945 153.611 90.9945C153.357 90.9945 153.088 91.0921 152.805 91.2874C152.522 91.4779 152.256 91.7293 152.007 92.0418C151.762 92.3494 151.562 92.679 151.406 93.0306C151.255 93.3773 151.179 93.7093 151.179 94.0267C151.179 94.2415 151.242 94.4393 151.369 94.62C151.496 94.8006 151.723 94.891 152.051 94.891ZM165.512 93.1844C165.512 92.3885 165.395 91.8172 165.161 91.4705C164.931 91.1239 164.619 90.9505 164.223 90.9505C164.004 90.9505 163.85 91.0433 163.762 91.2288C163.679 91.4144 163.637 91.6366 163.637 91.8953V97.5789H159.287V88.4749H161.689L162.737 89.8958C163.142 89.3441 163.689 88.9119 164.377 88.5994C165.066 88.2869 165.779 88.1307 166.516 88.1307C167.131 88.1307 167.695 88.2601 168.208 88.5189C168.72 88.7728 169.128 89.1414 169.431 89.6248C169.739 90.1082 169.892 90.6893 169.892 91.368V97.5789H165.512V93.1844ZM173.723 93.5433C174.167 93.5433 174.538 93.6385 174.836 93.8289C175.134 94.0194 175.356 94.266 175.503 94.5687C175.654 94.8714 175.73 95.1937 175.73 95.5355C175.73 95.9115 175.639 96.2777 175.459 96.6341C175.278 96.9857 175.007 97.2762 174.646 97.5057C174.284 97.7352 173.83 97.8499 173.283 97.8499C172.82 97.8499 172.439 97.7572 172.141 97.5716C171.848 97.3861 171.631 97.1419 171.489 96.8392C171.347 96.5365 171.277 96.2142 171.277 95.8724C171.277 95.5062 171.374 95.1449 171.57 94.7884C171.765 94.432 172.046 94.1366 172.412 93.9022C172.778 93.6629 173.215 93.5433 173.723 93.5433Z" fill="white"/>
</svg>
