<svg width="22" height="22" viewBox="0 0 22 22" fill="none" xmlns="http://www.w3.org/2000/svg">
<g clip-path="url(#clip0_129_2)">
<path d="M20.6059 10.3949C20.5766 10.3291 19.8711 8.76393 18.3018 7.19451C16.2118 5.10426 13.571 3.99937 10.6649 3.99937C10.051 3.99869 9.43801 4.04866 8.83228 4.14877C8.71415 4.16849 8.60351 4.21967 8.512 4.29694C8.42049 4.37421 8.35149 4.4747 8.31225 4.58786C8.27301 4.70102 8.26498 4.82265 8.28901 4.93999C8.31304 5.05732 8.36823 5.16601 8.4488 5.25463L16.8884 14.5382C17.0068 14.6683 17.1718 14.7464 17.3475 14.7554C17.5232 14.7645 17.6953 14.7036 17.8264 14.5863C19.7271 12.8837 20.5709 11.0151 20.6059 10.9364C20.6438 10.8511 20.6633 10.7589 20.6633 10.6657C20.6633 10.5724 20.6438 10.4802 20.6059 10.3949ZM4.49255 2.8844C4.37362 2.75358 4.20759 2.67536 4.031 2.66695C3.8544 2.65855 3.6817 2.72064 3.55088 2.83956C3.42006 2.95849 3.34185 3.12451 3.33344 3.30111C3.32503 3.47771 3.38712 3.65041 3.50605 3.78123L5.10923 5.5447C2.08295 7.402 0.781883 10.2646 0.723929 10.3949C0.686067 10.4802 0.666504 10.5724 0.666504 10.6656C0.666504 10.7589 0.686067 10.8511 0.723929 10.9364C0.753222 11.0023 1.45884 12.5671 3.02809 14.1362C5.1181 16.226 7.75888 17.3306 10.6649 17.3306C12.1585 17.3393 13.6369 17.0317 15.003 16.4279L16.8373 18.4456C16.9562 18.5764 17.1222 18.6546 17.2988 18.663C17.4754 18.6714 17.6481 18.6094 17.779 18.4904C17.9098 18.3715 17.988 18.2055 17.9964 18.0289C18.0048 17.8523 17.9427 17.6796 17.8238 17.5488L4.49255 2.8844ZM10.6649 13.6646C10.1167 13.6648 9.57889 13.5147 9.11 13.2306C8.64112 12.9465 8.2591 12.5393 8.00549 12.0532C7.75188 11.5672 7.63639 11.0209 7.67157 10.4738C7.70675 9.92669 7.89126 9.3997 8.20504 8.95014L12.1381 13.2765C11.689 13.5313 11.1813 13.665 10.6649 13.6646Z" fill="#4A4A4A"/>
</g>
<defs>
<clipPath id="clip0_129_2">
<rect width="21.33" height="21.33" fill="white"/>
</clipPath>
</defs>
</svg>
