<svg width="20" height="20" viewBox="0 0 20 20" fill="none" xmlns="http://www.w3.org/2000/svg">
<g clip-path="url(#clip0_23_518)">
<path d="M20 10.2217C20.0121 9.53422 19.9397 8.84782 19.7844 8.17731H10.2041V11.8884H15.8276C15.7211 12.539 15.4814 13.1619 15.1229 13.7195C14.7644 14.277 14.2945 14.7577 13.7415 15.1327L13.7219 15.257L16.7512 17.5568L16.9609 17.5773C18.8883 15.8328 19.9996 13.2661 19.9996 10.2217" fill="#4285F4"/>
<path d="M10.2041 20C12.9591 20 15.272 19.1111 16.9615 17.5777L13.7415 15.1331C12.8799 15.7222 11.7234 16.1333 10.2041 16.1333C8.91372 16.1259 7.6585 15.7205 6.61651 14.9746C5.57452 14.2287 4.79867 13.1801 4.39903 11.9777L4.27945 11.9877L1.12961 14.3766L1.08844 14.4888C1.93677 16.1457 3.23867 17.5386 4.84857 18.5119C6.45846 19.4852 8.31289 20.0004 10.2045 20" fill="#34A853"/>
<path d="M4.39905 11.9777C4.17586 11.3412 4.06069 10.6731 4.05813 10C4.06224 9.32805 4.17316 8.66081 4.3869 8.02231L4.38121 7.88975L1.19276 5.46246L1.08846 5.51107C0.372824 6.90349 6.10352e-05 8.44086 6.10352e-05 9.99993C6.10352e-05 11.559 0.372824 13.0964 1.08846 14.4888L4.39905 11.9777Z" fill="#FBBC05"/>
<path d="M10.2041 3.86669C11.6663 3.84444 13.0804 4.37809 14.1497 5.35564L17.0296 2.60002C15.1825 0.901909 12.7365 -0.0298245 10.2041 2.42511e-05C8.31254 -0.000416799 6.45813 0.514794 4.84824 1.48805C3.23834 2.4613 1.93643 3.85422 1.08807 5.51107L4.38769 8.02231C4.79126 6.82011 5.56968 5.77237 6.61321 5.02681C7.65674 4.28125 8.91273 3.87547 10.2041 3.86669Z" fill="#EB4335"/>
</g>
<defs>
<clipPath id="clip0_23_518">
<rect width="20" height="20" fill="white"/>
</clipPath>
</defs>
</svg>
