<svg width="20" height="20" viewBox="0 0 20 20" fill="none" xmlns="http://www.w3.org/2000/svg">
<g clip-path="url(#clip0_23_526)">
<path d="M15.3333 0H4.66667C2.08934 0 0 2.08934 0 4.66667V15.3333C0 17.9107 2.08934 20 4.66667 20H15.3333C17.9107 20 20 17.9107 20 15.3333V4.66667C20 2.08934 17.9107 0 15.3333 0Z" fill="url(#paint0_linear_23_526)"/>
<path fill-rule="evenodd" clip-rule="evenodd" d="M4.18566 14.1607L7.71833 10.5023L8.57333 11.3632C8.76787 11.5596 8.99942 11.7156 9.25459 11.822C9.50977 11.9285 9.78351 11.9833 10.06 11.9833C10.3365 11.9833 10.6102 11.9285 10.8654 11.822C11.1206 11.7156 11.3521 11.5596 11.5467 11.3632L12.32 10.5845L15.7777 14.165C15.7225 14.1767 15.6652 14.1827 15.6065 14.1827H4.37666C4.311 14.1827 4.247 14.175 4.18566 14.1607ZM16.4177 6.45817C16.4322 6.51983 16.4398 6.584 16.4398 6.65V13.3493C16.4398 13.5643 16.3583 13.7603 16.2248 13.9082L12.6722 10.2297L16.4175 6.458L16.4177 6.45817ZM3.56 13.5157V6.81667C3.56 6.672 3.59683 6.53583 3.66166 6.41717L7.366 10.1475L3.747 13.895C3.65295 13.7868 3.58852 13.6562 3.56 13.5157ZM16.1378 6.008L11.1982 10.9475C10.5473 11.5985 9.492 11.5985 8.84116 10.9475L3.87666 5.98333C4.01583 5.87883 4.189 5.81683 4.37666 5.81683H15.6063C15.8004 5.81655 15.9884 5.88424 16.1377 6.00817L16.1378 6.008Z" fill="white"/>
</g>
<defs>
<linearGradient id="paint0_linear_23_526" x1="1000" y1="0" x2="1000" y2="2000" gradientUnits="userSpaceOnUse">
<stop stop-color="#008EE7"/>
<stop offset="1" stop-color="#00D6FA"/>
</linearGradient>
<clipPath id="clip0_23_526">
<rect width="20" height="20" fill="white"/>
</clipPath>
</defs>
</svg>
