<svg width="22" height="22" viewBox="0 0 22 22" fill="none" xmlns="http://www.w3.org/2000/svg">
<path d="M20.6092 10.3967C20.5801 10.3309 19.8742 8.76506 18.3051 7.19589C16.2142 5.10506 13.5734 4.00006 10.6667 4.00006C7.76007 4.00006 5.11924 5.10506 3.02841 7.19589C1.45924 8.76506 0.750073 10.3334 0.72424 10.3967C0.686334 10.482 0.666748 10.5743 0.666748 10.6676C0.666748 10.7609 0.686334 10.8531 0.72424 10.9384C0.753407 11.0042 1.45924 12.5692 3.02841 14.1384C5.11924 16.2284 7.76007 17.3334 10.6667 17.3334C13.5734 17.3334 16.2142 16.2284 18.3051 14.1384C19.8742 12.5692 20.5801 11.0042 20.6092 10.9384C20.6471 10.8531 20.6667 10.7609 20.6667 10.6676C20.6667 10.5743 20.6471 10.482 20.6092 10.3967ZM10.6667 16.0001C8.10174 16.0001 5.86091 15.0676 4.00591 13.2292C3.2448 12.4723 2.59726 11.6092 2.08341 10.6667C2.59706 9.72416 3.24463 8.86102 4.00591 8.10423C5.86091 6.26589 8.10174 5.33339 10.6667 5.33339C13.2317 5.33339 15.4726 6.26589 17.3276 8.10423C18.0901 8.86089 18.7391 9.72402 19.2542 10.6667C18.6534 11.7884 16.0359 16.0001 10.6667 16.0001ZM10.6667 6.66673C9.87562 6.66673 9.10226 6.90132 8.44446 7.34085C7.78666 7.78038 7.27397 8.40509 6.97122 9.13599C6.66847 9.8669 6.58926 10.6712 6.7436 11.4471C6.89794 12.223 7.2789 12.9357 7.83831 13.4952C8.39772 14.0546 9.11046 14.4355 9.88638 14.5899C10.6623 14.7442 11.4666 14.665 12.1975 14.3622C12.9284 14.0595 13.5531 13.5468 13.9926 12.889C14.4321 12.2312 14.6667 11.4579 14.6667 10.6667C14.6656 9.6062 14.2439 8.58943 13.4939 7.83952C12.744 7.08961 11.7273 6.66783 10.6667 6.66673ZM10.6667 13.3334C10.1393 13.3334 9.62375 13.177 9.18522 12.884C8.74669 12.591 8.4049 12.1745 8.20306 11.6872C8.00123 11.1999 7.94842 10.6638 8.05131 10.1465C8.15421 9.6292 8.40818 9.15405 8.78112 8.78111C9.15406 8.40817 9.62922 8.15419 10.1465 8.0513C10.6638 7.94841 11.2 8.00121 11.6872 8.20305C12.1745 8.40488 12.591 8.74668 12.884 9.18521C13.177 9.62374 13.3334 10.1393 13.3334 10.6667C13.3334 11.374 13.0525 12.0522 12.5524 12.5523C12.0523 13.0524 11.374 13.3334 10.6667 13.3334Z" fill="#4A4A4A"/>
</svg>
